<svg xmlns="http://www.w3.org/2000/svg" width="512" height="512"><path fill="#3B65CA" d="m293 16 2.238.65c32.895 9.909 59.247 32.588 75.76 62.45 3.673 6.964 6.962 14.039 8.002 21.9l1.632.164C464.387 109.917 464.387 109.917 483 132c2.23 3.8 2.45 6.58 2 11-3.656 8.901-10.808 13.232-19.353 16.983C443.222 169.252 414.58 177 390 177l1 2a92.26 92.26 0 0 1 .127 4.872c.233 17.128 2.737 33.144 6.248 49.878.997 4.847 1.982 9.696 2.96 14.547l.716 3.525c7.111 35.712 12.614 75.022-7.988 107.213C386.2 368.9 386.2 368.9 382 371c-3.01.353-5.09.577-8 0-2.342-2.015-3.951-3.68-5.812-6.062-9.886-11.605-23.85-19.35-39.188-20.938-10.024-.783-10.024-.783-19 3h-2v15h19l1-4c2-2 2-2 5.938-2.312 2.577.074 3.777.137 6 1.5 1.311 2.237 1.716 4.255 2.062 6.812l3.75.625c11.045 2.514 19.398 8.427 27.25 16.375l1.965 1.898C379.934 388.052 386 396.623 386 404l3.688-.25c3.385-.012 4.25.21 7.25 2.125 5.143 5.3 3.368 14.456 3.412 21.463a534.5 534.5 0 0 0 .082 5.802c.055 2.792.077 5.583.091 8.376l.07 2.604c-.015 4.11-.255 7.048-2.75 10.41-3.102 2.695-4.793 3.282-8.843 3.47l.016 3.64c.018 4.447.03 8.893.039 13.34.005 1.926.012 3.853.02 5.78.013 2.764.018 5.53.023 8.295l.015 2.62c0 6.097 0 6.097-1.113 8.325H124c-1.692-3.384-1.12-7.225-1.098-10.945l.005-2.682c.005-2.833.018-5.665.03-8.498.006-1.918.01-3.836.014-5.754.011-4.707.028-9.414.049-14.121l-2.687-.187c-4.288-1.052-5.747-2.219-8.313-5.813-.702-3.176-.678-6.258-.629-9.5l-.007-2.768c0-1.926.014-3.853.04-5.779.033-2.944.02-5.884 0-8.828.007-1.875.017-3.75.03-5.625l-.015-2.658c.079-4.132.242-6.304 2.491-9.873 3.924-3.697 6.896-3.053 12.09-2.969l.445-1.617c4.576-15.198 14.787-26.476 28.684-34.012 4.83-2.307 9.47-4.371 14.871-4.371l.313-2.312c.763-2.985 1.092-4.045 3.687-5.688 4.081-.52 6.126-.672 9.438 1.875C185 360 185 360 185 362h19v-15l-5-2-2-1c-16.698-1.476-32.914 2.913-46.074 13.465-3.919 3.479-7.57 6.884-10.613 11.16C138 371 138 371 134.063 371.688c-4.472-.394-7.179-2.358-10.063-5.688-19.713-24.251-20.85-52.651-18-82.375 1.85-17.45 5.402-34.614 8.841-51.805 1.24-6.206 2.445-12.419 3.647-18.632l2.45-12.625.597-3.078c.558-2.87 1.118-5.738 1.68-8.606l.504-2.598c.622-3.165 1.26-6.217 2.281-9.281l-2.734-.124c-9.432-.517-18.547-1.757-27.829-3.564l-2.092-.4c-51.648-9.93-51.648-9.93-64.01-24.932-2.633-3.904-2.725-7.382-2.335-11.98 5.98-11.72 18.77-16.594 30.578-20.602 18.775-6.04 38.143-9.335 57.61-12.21l2.276-.338c2.15-.316 4.302-.625 6.454-.932l3.774-.538c2.814-.323 5.481-.459 8.308-.38l.5-3.5c5.999-26.722 29.21-51.85 51.504-66.078C219.17 12.169 257.514 5.663 293 16Z"/><path fill="#3A64CC" d="m212 351 1.585.519c2.428.791 4.86 1.574 7.29 2.356l2.492.816c10.566 3.385 20.207 4.673 31.32 4.622l3.763-.015c13.172-.169 24.558-2.613 36.82-7.31C298 351 298 351 300 351l.184 3.902.253 5.036.12 2.576.127 2.45.11 2.27c.024 1.79.024 1.79 1.206 2.766 1.852.158 3.71.251 5.566.316l3.069.116 3.928.13L327 371v33h14v-40c13.351 1.669 22.73 7.463 32 17l1.957 1.895C379.933 388.043 386 396.623 386 404l3.688-.25c3.385-.012 4.25.21 7.25 2.125 5.143 5.3 3.368 14.456 3.412 21.463a534.5 534.5 0 0 0 .082 5.802c.055 2.792.077 5.583.091 8.376l.07 2.604c-.015 4.11-.255 7.048-2.75 10.41-3.102 2.695-4.793 3.282-8.843 3.47l.016 3.64c.018 4.447.03 8.893.039 13.34.005 1.926.012 3.853.02 5.78.013 2.764.018 5.53.023 8.295l.015 2.62c0 6.097 0 6.097-1.113 8.325H124c-1.692-3.384-1.12-7.225-1.098-10.945l.005-2.682c.005-2.833.018-5.665.03-8.498.006-1.918.01-3.836.014-5.754.011-4.707.028-9.414.049-14.121l-2.687-.187c-4.288-1.052-5.747-2.219-8.313-5.813-.702-3.176-.678-6.258-.629-9.5l-.007-2.768c0-1.926.014-3.853.04-5.779.033-2.944.02-5.884 0-8.828.007-1.875.017-3.75.03-5.625l-.015-2.658c.079-4.132.242-6.304 2.491-9.873 3.924-3.697 6.896-3.053 12.09-2.969l.445-1.617c4.575-15.196 14.787-26.484 28.688-34.012 5.334-2.55 9.924-4.371 15.867-4.371v40h14v-33c12.438-.437 12.438-.437 16.365-.568l3.069-.116 3.158-.11c2.358.059 2.358.059 3.408-1.206.156-1.34.25-2.688.316-4.035l.127-2.451.12-2.577.13-2.587c.107-2.117.207-4.233.307-6.35Z"/><path fill="#F8CECE" d="M160 181c28.763-1.43 28.763-1.43 35.824 3.938 2.975 2.864 5.475 6.07 7.898 9.408 9.74 12.61 32.263 19.615 47.278 21.654 3.434.16 6.866.174 10.304.19l3.101.025c2.215.017 4.43.032 6.644.045 3.5.021 7 .048 10.5.077 8.686.07 17.372.13 26.058.19 7.351.05 14.702.105 22.053.165 3.457.027 6.914.047 10.372.068l6.311.05 2.936.013 2.655.026 2.32.015C356 217 356 217 357 218c1.495.3 2.996.564 4.5.813 8.91 1.754 15.877 4.845 21.5 12.187 4.285 6.592 5.001 13.28 4 21-1.974 7.43-6.612 14.409-13.29 18.352-5.445 2.403-10.43 3.09-16.362 3.082-2.52.356-2.52.356-4 2.609-1.297 2.845-2.34 5.7-3.286 8.679-8.004 25.096-25.836 44.964-49.04 57.285-6.101 2.996-12.514 5.08-19.022 6.993l-3.414 1.031c-14.024 3.615-30.532 3.423-44.586-.031l-3.266-.742C216.11 345.553 203.574 338.61 192 329l-2.645-2.148C175.654 315.192 166.94 299.768 161 283c-1.432-4.856-1.432-4.856-4-9-1.999-.107-4-.185-6-.25-8.595-.63-13.98-3.323-19.875-9.562-5.297-6.6-6.793-12.712-6.527-21.165 1.117-8.398 5.66-14.131 12.074-19.398 5.77-4.028 11.455-4.901 18.328-5.625 1.656-1.656 1.168-3.647 1.21-5.926l.087-3.107c.05-2.143.095-4.287.133-6.43.224-7.522 1.468-14.314 3.57-21.537Z"/><path fill="#E7A87D" d="m133 110-.473 3.184c-2.295 12.833-2.295 12.833 1.41 24.816 3.998 3.876 8.063 3.148 13.343 3.147l2.952.011c3.285.011 6.57.015 9.855.019l7.04.02c7.058.02 14.116.03 21.173.039l9.967.015a37428.893 37428.893 0 0 0 41.721.044l2.159.002c11.542.008 23.085.033 34.627.066 11.846.033 23.692.05 35.538.054 6.653.002 13.306.011 19.959.036 6.257.024 12.513.028 18.77.018 2.3 0 4.598.006 6.897.02 3.134.017 6.267.01 9.4-.003l2.77.033c4.147-.042 6.323-.166 9.913-2.406 3.163-3.38 3.974-5.796 3.99-10.42l-.324-3.57-.328-3.719c-.368-3.49-.782-6.945-1.359-10.406 4.986-.166 9.583.005 14.5.871l3.19.554L403 113c2.15.349 4.302.697 6.453 1.043C457.41 122.008 457.41 122.008 473 134l1.875 1.375c1.867 2.696 1.697 4.445 1.125 7.625-14.969 17.107-49.607 20.033-71 23.5l-2.771.453C381.912 170.251 361.512 172.37 341 174l-3.479.286c-25.318 1.894-50.722 1.877-76.095 1.844-4.465-.005-8.929-.002-13.394.004-28.913.032-57.713-.359-86.532-2.946l-3.033-.267C53.488 163.64 53.488 163.64 36 143c-.687-2.875-.687-2.875 0-6 7.941-10.022 22.295-12.856 34-16l2.257-.625C91.682 115.019 112.77 110 133 110Z"/><path fill="#E9A87D" d="m285 23 3.86 1.031C320.124 32.805 345.593 53.033 362 81c5 8.995 5 8.995 5 13H148c3.028-15.14 14.687-28.045 25-39l1.633-1.828c13.763-14.801 34.022-25.026 53.456-29.7 1.736-.429 3.454-.927 5.169-1.433 16.316-4.37 35.567-3.618 51.742.961Z"/><path fill="#DFEAFB" d="m125.337 411.874 2.854-.008 3.173.007 3.341-.005c3.726-.004 7.452 0 11.178.003l7.976-.006c6.49-.004 12.98-.003 19.47 0 5.272.002 10.544.002 15.816.001h2.27l4.563-.001c14.281-.003 28.562 0 42.843.006 12.268.004 24.535.003 36.802-.001a72132.503 72132.503 0 0 1 47.232-.004h2.26c5.27.002 10.538 0 15.807-.002 6.417-.003 12.833-.002 19.25.003 3.277.003 6.554.003 9.83 0 3.545-.002 7.09.001 10.634.006l3.173-.007 2.854.008h2.483C391 412 391 412 392 413c.1 2.582.14 5.136.133 7.719l.003 2.342c0 1.638-.001 3.276-.006 4.913-.005 2.515 0 5.03.007 7.546 0 1.587-.002 3.174-.004 4.761l.006 2.295c-.024 5.309-.024 5.309-1.139 6.424-1.443.098-2.89.126-4.337.126l-2.854.008-3.173-.007-3.341.005c-3.726.004-7.452 0-11.178-.003l-7.976.006c-6.49.004-12.98.003-19.47 0-5.272-.002-10.544-.002-15.816-.001h-2.27l-4.563.001c-14.281.003-28.562 0-42.843-.006a56432.61 56432.61 0 0 0-36.802.001 72132.503 72132.503 0 0 1-47.232.004h-2.26c-5.27-.002-10.538 0-15.807.002-6.417.003-12.833.002-19.25-.003-3.277-.003-6.554-.003-9.83 0-3.545.002-7.09-.001-10.634-.006l-3.173.007-2.854-.008h-2.483C121 449 121 449 120 448c-.1-2.582-.14-5.136-.133-7.719l-.003-2.342c0-1.638.001-3.276.006-4.913.005-2.515 0-5.03-.007-7.546 0-1.587.002-3.174.004-4.761l-.006-2.295c.03-6.549.03-6.549 5.476-6.55Z"/><path fill="#DDE9FB" d="M144 102h227c5.118 17.914 5.118 17.914 5.188 25.813l.042 2.269C376 132 376 132 374 134c-3.054.198-6.017.27-9.073.254l-2.884.01c-3.209.007-6.418.001-9.627-.005-2.293.002-4.585.006-6.878.01-6.241.01-12.483.006-18.724 0-6.52-.005-13.038 0-19.557.002-11.65.004-23.302-.002-34.953-.012-10.571-.009-21.143-.007-31.715.002-12.266.01-24.532.014-36.797.009-6.497-.004-12.994-.004-19.491.003-6.107.005-12.213.001-18.32-.01-2.247-.003-4.494-.002-6.741.002-3.056.006-6.112-.001-9.167-.011l-2.726.013c-6.119-.039-6.119-.039-8.347-2.267-.863-10.186 1.8-20.401 5-30Z"/><path fill="#E0EBFC" d="M160 458h192v34H160v-34Z"/><path fill="#F8CECE" d="m212 351 1.585.519c2.428.791 4.86 1.574 7.29 2.356l2.492.816c10.566 3.385 20.207 4.673 31.32 4.622l3.763-.015c13.172-.169 24.558-2.613 36.82-7.31C298 351 298 351 300 351l.184 3.902.253 5.036.12 2.576.127 2.45.11 2.27c.024 1.79.024 1.79 1.206 2.766 1.852.158 3.71.251 5.566.316l3.069.116 3.928.13L327 371v33H185v-33c12.438-.437 12.438-.437 16.365-.568l3.069-.116 3.158-.11c2.358.059 2.358.059 3.408-1.206.156-1.34.25-2.688.316-4.035l.127-2.451.12-2.577.13-2.587c.107-2.117.207-4.233.307-6.35Z"/><path fill="#4570C6" d="M382 178c1.181 6.483 1.113 12.862 1.063 19.438l-.014 3.373c-.012 2.73-.028 5.46-.049 8.189-16.265.07-32.53.123-48.795.155-7.554.016-15.108.037-22.662.071-6.592.03-13.184.05-19.776.056-3.484.004-6.967.013-10.45.035-29.412.18-53.209-2.643-75.989-22.97C204 185 204 185 204 184l2.16.007c42.252.125 84.404.22 126.59-2.445.974-.06 1.947-.122 2.95-.186 10.927-.7 21.822-1.544 32.706-2.744 4.565-.491 9.003-.72 13.594-.632Zm-264 82h2c1.227 1.723 1.227 1.723 2.625 4.063 5.02 7.73 11.46 13.24 20.375 15.937l2.582.121c3.01.149 4.791.363 7.418 1.879 2.377 4.457 3.77 9.095 5.28 13.899 4.851 14.161 15.007 25.833 25.63 36.019L186 334v1l-3.227.445c-19.218 2.875-33.35 10.385-46.777 24.649C134 362 134 362 132 362c-13.39-15.32-18.776-33.326-18.437-53.312.01-1.387.022-2.774.033-4.16.197-14.951 1.816-29.804 4.404-44.528Z"/><path fill="#3963CC" d="m315 226 3 2c3.065.336 6.107.442 9.188.559C330 229 330 229 331.89 230.402c1.11 1.598 1.11 1.598.86 3.723C332 236 332 236 331 237c-2.333.04-4.667.042-7 0l.063 1.8c.084 2.734.136 5.466.187 8.2l.102 2.832c.086 6.183-.599 11.097-4.352 16.168-3.17 2.784-6.311 3.902-10.5 4.5-4.17-.596-7.386-1.604-10.5-4.5-4.48-6.032-4.613-11.196-4.5-18.562-.015-1.016-.03-2.03-.047-3.077.04-7.77 1.568-10.93 6.61-16.736 4.44-2.457 8.962-2.287 13.937-1.625Zm-108 0c4.724 1.951 7.725 5.45 10 10 .268 3.556.232 7.122.25 10.688l.063 2.974c.031 5.9-.339 10.188-3.313 15.338-3.341 3.305-6.958 4.835-11.562 5.563-5.842-.956-9.074-2.735-12.63-7.5-2.683-4.94-2.243-10.022-2.058-15.5l.055-3.084c.047-2.494.112-4.986.195-7.479l-3.375.125C181 237 181 237 179 235c.25-2.562.25-2.562 1-5 3.436-1.718 7.359-1.404 11.152-1.621 5.942-.79 9.326-3.048 15.848-2.379Z"/><path fill="#F5CDCE" d="M171 373v31h-36c4.808-14.423 14.801-23.17 28-30 3-1 3-1 8-1Z"/><path fill="#F6CDCE" d="M341 372c16.427 4.928 26.33 12.612 34.75 27.46C377 402 377 402 377 404h-36v-32Z"/><path fill="#F0CACE" d="M360 457h21v35h-21v-35Zm-229 0h21v35h-21v-35Z"/><path fill="#4871C6" d="M177.5 355.438c3.5.562 3.5.562 5.938 1.937C185 360 185 360 185 370h25v1h-25v33h-14v-31l-2-1h2l-.36-2.23c-1.044-7.91-1.044-7.91.86-11.957 2.5-1.813 2.5-1.813 6-2.375Z"/><path fill="#4771C6" d="M331.938 355.602c5.514.062 5.514.062 8 1.586 2.85 4.862 2.114 10.623 1.94 16.05l-.07 2.67a3367.49 3367.49 0 0 1-.245 8.404l-.159 5.713A6050.59 6050.59 0 0 1 341 404h-14v-33h-25v-1h25v-11c3-3 3-3 4.938-3.398Z"/><path fill="#4570C6" d="m134 178 18 2-.937 5.938C149.86 194.27 149.387 202.595 149 211l-1.687.516c-7.816 2.482-14.6 5.785-21.313 10.484 1.42-9.834 3.208-19.567 5.125-29.312l.84-4.303c.675-3.462 1.355-6.924 2.035-10.385Z"/><path fill="#3D65CC" d="M234 287c2.508.074 2.508.074 5 1 1.117 2.145 1.117 2.145 1.875 4.813 1.372 3.775 2.003 5.08 5.125 7.812 5.623 2.545 12.299 2.314 18.188.82 2.975-1.346 4.59-2.965 5.945-5.902 1.018-2.7 1.018-2.7 1.75-5.398C273 288 273 288 275.493 287.075L278 287c2 2 2 2 2.117 3.953-.64 6.073-1.945 10.275-6.726 14.453-7.443 5.665-15.214 6.639-24.391 5.594-7.67-2.415-12.58-6.391-16.312-13.5-.818-2.971-.96-5.432-.688-8.5l2-2Z"/></svg>