<?xml version="1.0" encoding="UTF-8"?>
<svg version="1.1" xmlns="http://www.w3.org/2000/svg" width="512" height="512">
<path d="M0 0 C0.73847168 0.21430664 1.47694336 0.42861328 2.23779297 0.64941406 C35.13253171 10.55894509 61.48479983 33.23784478 77.99804688 63.10058594 C81.67112331 70.06367919 84.9597081 77.13870325 86 85 C86.53850586 85.05422119 87.07701172 85.10844238 87.63183594 85.16430664 C171.38725132 93.91707784 171.38725132 93.91707784 190 116 C192.23089781 119.79996261 192.44958224 122.57910794 192 127 C188.34422875 135.90100826 181.19191911 140.23166786 172.6472168 143.98339844 C150.22223459 153.25164915 121.58008297 161 97 161 C97.33 161.66 97.66 162.32 98 163 C98.09023741 164.62207088 98.12300328 166.24749744 98.12744141 167.87207031 C98.35971243 185.00049142 100.86364454 201.01612655 104.375 217.75 C105.37189918 222.59697029 106.35714354 227.44621794 107.3359375 232.296875 C107.57175034 233.4603244 107.80756317 234.6237738 108.05052185 235.82247925 C115.16218758 271.53394834 120.66497269 310.84379267 100.0625 343.03515625 C93.2 352.9 93.2 352.9 89 355 C85.98953908 355.35325242 83.91057233 355.57662929 81 355 C78.65829363 352.98546606 77.04899145 351.32010535 75.1875 348.9375 C65.30167512 337.33294668 51.33739531 329.58891002 36 328 C25.97630243 327.21678185 25.97630243 327.21678185 17 331 C16.34 331 15.68 331 15 331 C15 335.95 15 340.9 15 346 C21.27 346 27.54 346 34 346 C34.33 344.68 34.66 343.36 35 342 C37 340 37 340 40.9375 339.6875 C43.51515144 339.76221453 44.71507942 339.82537126 46.9375 341.1875 C48.24912987 343.42498625 48.65447612 345.44312331 49 348 C50.85625 348.309375 50.85625 348.309375 52.75 348.625 C63.79462162 351.13908185 72.14804536 357.05245634 80 365 C80.97259766 365.93972656 80.97259766 365.93972656 81.96484375 366.8984375 C86.93373302 372.0521651 93 380.62347628 93 388 C94.216875 387.9175 95.43375 387.835 96.6875 387.75 C100.0726174 387.73799604 100.93868234 387.96086107 103.9375 389.875 C109.08144011 395.17481708 107.30616195 404.3312274 107.35009766 411.33837891 C107.36663902 413.27242074 107.39390506 415.2064019 107.43212891 417.14013672 C107.48702673 419.93228793 107.50879232 422.72300604 107.5234375 425.515625 C107.54610687 426.37520813 107.56877625 427.23479126 107.59213257 428.12042236 C107.57774246 432.23009587 107.33825261 435.16760379 104.84228516 438.53027344 C101.7405078 441.22547871 100.05040619 441.81160901 96 442 C96.00785522 443.80186768 96.00785522 443.80186768 96.01586914 445.64013672 C96.03393653 450.08674376 96.0454384 454.53334753 96.05493164 458.97998047 C96.05996787 460.90641831 96.06679712 462.83285231 96.07543945 464.75927734 C96.08753608 467.52442368 96.09323533 470.28951958 96.09765625 473.0546875 C96.10281754 473.9193161 96.10797882 474.7839447 96.11329651 475.67477417 C96.11387171 481.77225659 96.11387171 481.77225659 95 484 C7.88 484 -79.24 484 -169 484 C-170.69196504 480.61606992 -170.11986549 476.77522209 -170.09765625 473.0546875 C-170.0962413 472.1696756 -170.09482635 471.2846637 -170.09336853 470.37283325 C-170.0877614 467.54018809 -170.07520771 464.70762136 -170.0625 461.875 C-170.05748592 459.95703239 -170.05292285 458.03906354 -170.04882812 456.12109375 C-170.03778966 451.41403218 -170.02052025 446.7070294 -170 442 C-170.886875 441.938125 -171.77375 441.87625 -172.6875 441.8125 C-176.97512824 440.7608176 -178.43364094 439.59435014 -181 436 C-181.70233028 432.82432836 -181.67790685 429.74204174 -181.62890625 426.5 C-181.63131821 425.58669922 -181.63373016 424.67339844 -181.63621521 423.73242188 C-181.6352379 421.80594531 -181.62187193 419.87944027 -181.59692383 417.953125 C-181.56261008 415.00944326 -181.57627153 412.06876411 -181.59570312 409.125 C-181.58880439 407.24998726 -181.57913177 405.37498225 -181.56640625 403.5 C-181.57384605 402.18418945 -181.57384605 402.18418945 -181.58143616 400.84179688 C-181.50207146 396.71049233 -181.33908047 394.53802213 -179.08959961 390.96875 C-175.16584199 387.27191842 -172.19436282 387.91621995 -167 388 C-166.85304688 387.46632813 -166.70609375 386.93265625 -166.5546875 386.3828125 C-161.97948162 371.1847148 -151.76771678 359.90671378 -137.87109375 352.37109375 C-133.04079024 350.06437738 -128.4017782 348 -123 348 C-122.8453125 346.8553125 -122.8453125 346.8553125 -122.6875 345.6875 C-121.92391959 342.70259478 -121.59461433 341.64325574 -119 340 C-114.91894494 339.48059299 -112.87389788 339.32777087 -109.5625 341.875 C-108 344 -108 344 -108 346 C-101.73 346 -95.46 346 -89 346 C-89 341.05 -89 336.1 -89 331 C-90.65 330.34 -92.3 329.68 -94 329 C-94.66 328.67 -95.32 328.34 -96 328 C-112.69820172 326.52378217 -128.91370583 330.91302208 -142.07421875 341.46484375 C-145.99251246 344.94370265 -149.64459795 348.34876224 -152.6875 352.625 C-155 355 -155 355 -158.9375 355.6875 C-163.40882648 355.29395628 -166.11590588 353.32954321 -169 350 C-188.71260084 325.74891664 -189.85035884 297.3486759 -187 267.625 C-185.14935097 250.17585507 -181.59808835 233.01130832 -178.15869141 215.8203125 C-176.91883924 209.61403636 -175.71398914 203.40114866 -174.51171875 197.1875 C-173.69587528 192.97905739 -172.87939649 188.77073834 -172.0625 184.5625 C-171.76687164 183.03908493 -171.76687164 183.03908493 -171.465271 181.4848938 C-170.90744796 178.61579342 -170.34677376 175.74726597 -169.78515625 172.87890625 C-169.61884201 172.02155884 -169.45252777 171.16421143 -169.28117371 170.28088379 C-168.65933765 167.115939 -168.02118081 164.06354243 -167 161 C-167.90226318 160.9589917 -168.80452637 160.9179834 -169.73413086 160.87573242 C-179.1655639 160.35914946 -188.28115002 159.11932278 -197.5625 157.3125 C-198.25288361 157.18028046 -198.94326721 157.04806091 -199.65457153 156.91183472 C-251.3031646 146.98184015 -251.3031646 146.98184015 -263.6640625 131.98046875 C-266.29806783 128.07567137 -266.38968699 124.59830645 -266 120 C-260.02002946 108.27925774 -247.22990455 103.40561994 -235.421875 99.3984375 C-216.64676359 93.35721633 -197.2788449 90.06257144 -177.8125 87.1875 C-176.68578888 87.02059158 -176.68578888 87.02059158 -175.53631592 86.85031128 C-173.38560335 86.53429362 -171.23409814 86.22461538 -169.08203125 85.91796875 C-167.83655518 85.74031982 -166.5910791 85.5626709 -165.30786133 85.37963867 C-162.49419862 85.05671849 -159.82657895 84.92117645 -157 85 C-156.835 83.845 -156.67 82.69 -156.5 81.5 C-150.50114848 54.77784321 -127.29059837 29.64950881 -104.99609375 15.421875 C-73.82867779 -3.83106351 -35.48687409 -10.33689926 0 0 Z " fill="#3B65CA" transform="translate(293,16)"/>
<path d="M0 0 C0.52319824 0.17128418 1.04639648 0.34256836 1.58544922 0.51904297 C4.01343745 1.31020921 6.44416665 2.092621 8.875 2.875 C9.69742188 3.14441406 10.51984375 3.41382813 11.3671875 3.69140625 C21.93338584 7.07589166 31.57411194 8.36430542 42.6875 8.3125 C44.54979248 8.30512817 44.54979248 8.30512817 46.44970703 8.29760742 C59.62160866 8.12931226 71.00780113 5.68514736 83.26953125 0.98828125 C86 0 86 0 88 0 C88.06058594 1.28777344 88.12117187 2.57554687 88.18359375 3.90234375 C88.26798247 5.58074159 88.3526313 7.25912636 88.4375 8.9375 C88.47681641 9.78763672 88.51613281 10.63777344 88.55664062 11.51367188 C88.61948242 12.72700195 88.61948242 12.72700195 88.68359375 13.96484375 C88.72025146 14.7137085 88.75690918 15.46257324 88.79467773 16.23413086 C88.81771063 18.02461326 88.81771063 18.02461326 90 19 C91.85174706 19.15786308 93.7090911 19.25107356 95.56640625 19.31640625 C96.57904541 19.35451416 97.59168457 19.39262207 98.63500977 19.43188477 C99.93108154 19.47498779 101.22715332 19.51809082 102.5625 19.5625 C108.7190625 19.7790625 108.7190625 19.7790625 115 20 C115 30.89 115 41.78 115 53 C119.62 53 124.24 53 129 53 C129 39.8 129 26.6 129 13 C142.35144597 14.66893075 151.72949393 20.46319573 161 30 C161.64582031 30.62519531 162.29164063 31.25039063 162.95703125 31.89453125 C167.93253215 37.04347009 174 45.62282011 174 53 C175.216875 52.9175 176.43375 52.835 177.6875 52.75 C181.0726174 52.73799604 181.93868234 52.96086107 184.9375 54.875 C190.08144011 60.17481708 188.30616195 69.3312274 188.35009766 76.33837891 C188.36663902 78.27242074 188.39390506 80.2064019 188.43212891 82.14013672 C188.48702673 84.93228793 188.50879232 87.72300604 188.5234375 90.515625 C188.54610687 91.37520813 188.56877625 92.23479126 188.59213257 93.12042236 C188.57774246 97.23009587 188.33825261 100.16760379 185.84228516 103.53027344 C182.7405078 106.22547871 181.05040619 106.81160901 177 107 C177.00785522 108.80186768 177.00785522 108.80186768 177.01586914 110.64013672 C177.03393653 115.08674376 177.0454384 119.53334753 177.05493164 123.97998047 C177.05996787 125.90641831 177.06679712 127.83285231 177.07543945 129.75927734 C177.08753608 132.52442368 177.09323533 135.28951958 177.09765625 138.0546875 C177.10281754 138.9193161 177.10797882 139.7839447 177.11329651 140.67477417 C177.11387171 146.77225659 177.11387171 146.77225659 176 149 C88.88 149 1.76 149 -88 149 C-89.69196504 145.61606992 -89.11986549 141.77522209 -89.09765625 138.0546875 C-89.0962413 137.1696756 -89.09482635 136.2846637 -89.09336853 135.37283325 C-89.0877614 132.54018809 -89.07520771 129.70762136 -89.0625 126.875 C-89.05748592 124.95703239 -89.05292285 123.03906354 -89.04882812 121.12109375 C-89.03778966 116.41403218 -89.02052025 111.7070294 -89 107 C-89.886875 106.938125 -90.77375 106.87625 -91.6875 106.8125 C-95.97512824 105.7608176 -97.43364094 104.59435014 -100 101 C-100.70233028 97.82432836 -100.67790685 94.74204174 -100.62890625 91.5 C-100.63131821 90.58669922 -100.63373016 89.67339844 -100.63621521 88.73242188 C-100.6352379 86.80594531 -100.62187193 84.87944027 -100.59692383 82.953125 C-100.56261008 80.00944326 -100.57627153 77.06876411 -100.59570312 74.125 C-100.58880439 72.24998726 -100.57913177 70.37498225 -100.56640625 68.5 C-100.57136612 67.62279297 -100.57632599 66.74558594 -100.58143616 65.84179688 C-100.50207146 61.71049233 -100.33908047 59.53802213 -98.08959961 55.96875 C-94.16584199 52.27191842 -91.19436282 52.91621995 -86 53 C-85.85304688 52.46632813 -85.70609375 51.93265625 -85.5546875 51.3828125 C-80.98007964 36.18670133 -70.76751544 24.89893369 -56.8671875 17.37109375 C-51.53292838 14.82024232 -46.94253816 13 -41 13 C-41 26.2 -41 39.4 -41 53 C-36.38 53 -31.76 53 -27 53 C-27 42.11 -27 31.22 -27 20 C-14.5625 19.5625 -14.5625 19.5625 -10.63500977 19.43188477 C-9.62237061 19.39377686 -8.60973145 19.35566895 -7.56640625 19.31640625 C-6.52427979 19.27974854 -5.48215332 19.24309082 -4.40844727 19.20532227 C-2.0500174 19.26484659 -2.0500174 19.26484659 -1 18 C-0.84417697 16.65984779 -0.74955858 15.31241097 -0.68359375 13.96484375 C-0.64169922 13.15595703 -0.59980469 12.34707031 -0.55664062 11.51367188 C-0.51732422 10.66353516 -0.47800781 9.81339844 -0.4375 8.9375 C-0.37272461 7.65649414 -0.37272461 7.65649414 -0.30664062 6.34960938 C-0.20023298 4.23327963 -0.09958269 2.11666187 0 0 Z " fill="#3A64CC" transform="translate(212,351)"/>
<path d="M0 0 C28.76335602 -1.42933483 28.76335602 -1.42933483 35.82421875 3.9375 C38.79878713 6.80242131 41.29937337 10.00790297 43.72216797 13.34570312 C53.46290581 25.9561807 75.98496783 32.96111088 91 35 C94.43426127 35.15909887 97.8664018 35.17444907 101.30395508 35.18945312 C102.32734985 35.19774643 103.35074463 35.20603973 104.40515137 35.21458435 C106.61988114 35.23193839 108.8346288 35.24711773 111.04938698 35.26036072 C114.54930483 35.28142923 118.049132 35.30844502 121.54899597 35.33703613 C130.23496985 35.40677965 138.92100765 35.46640394 147.60705566 35.52606201 C154.9579586 35.57689764 162.30881086 35.63166754 169.65964317 35.69187927 C173.11697786 35.71853755 176.57431712 35.73929518 180.0316925 35.7598877 C182.13546987 35.77648036 184.23924506 35.79335128 186.34301758 35.81054688 C187.31182358 35.81473129 188.28062958 35.81891571 189.27879333 35.82322693 C190.15498322 35.83157059 191.0311731 35.83991425 191.93391418 35.84851074 C192.69950559 35.85366447 193.46509699 35.85881821 194.25388813 35.86412811 C196 36 196 36 197 37 C198.49454 37.29950107 199.99611032 37.56417254 201.5 37.8125 C210.41061686 39.56665853 217.37684849 42.65785399 223 50 C227.28462909 56.59173706 228.00101884 63.28080315 227 71 C225.02584216 78.42937505 220.38817332 85.40903077 213.7109375 89.3515625 C208.26540112 91.75451347 203.2791494 92.44212827 197.34765625 92.43359375 C194.82740785 92.78975368 194.82740785 92.78975368 193.34765625 95.04296875 C192.0511873 97.88768468 191.00860111 100.7433737 190.06176758 103.72167969 C182.0576585 128.81810417 164.22550651 148.68632934 141.02246094 161.00683594 C134.92104621 164.00304008 128.50813123 166.08678161 122 168 C120.87335938 168.3403125 119.74671875 168.680625 118.5859375 169.03125 C104.56159727 172.64611574 88.05367929 172.45387033 74 169 C72.92234375 168.75507813 71.8446875 168.51015625 70.734375 168.2578125 C56.10988735 164.55250509 43.57449254 157.60963575 32 148 C30.69095703 146.93652344 30.69095703 146.93652344 29.35546875 145.8515625 C15.6537244 134.1913991 6.93876667 118.76828236 1 102 C-0.43194278 97.14413807 -0.43194278 97.14413807 -3 93 C-4.99886914 92.89291772 -6.99931497 92.81483701 -9 92.75 C-17.5952103 92.11993535 -22.97980746 89.42657877 -28.875 83.1875 C-34.17199498 76.58776379 -35.66848191 70.4759855 -35.40234375 62.0234375 C-34.28478774 53.62549235 -29.74184435 47.89189536 -23.328125 42.625 C-17.55777604 38.59737388 -11.8734902 37.72352528 -5 37 C-3.34376252 35.34376252 -3.83237746 33.35262544 -3.7890625 31.07421875 C-3.74652344 29.53604492 -3.74652344 29.53604492 -3.703125 27.96679688 C-3.65206894 25.82371861 -3.60751906 23.68047282 -3.5703125 21.53710938 C-3.34645725 14.01464025 -2.10243732 7.22257624 0 0 Z " fill="#F8CECE" transform="translate(160,181)"/>
<path d="M0 0 C-0.23396484 1.57587891 -0.23396484 1.57587891 -0.47265625 3.18359375 C-2.76750787 16.01688586 -2.76750787 16.01688586 0.9375 28 C4.93467589 31.87604935 9.00048717 31.14822824 14.28022766 31.14717102 C15.2543777 31.15084771 16.22852773 31.1545244 17.23219746 31.1583125 C20.51718961 31.16938157 23.80215017 31.17319861 27.0871582 31.17700195 C29.43399151 31.18326411 31.78082382 31.18991068 34.12765503 31.19691467 C41.18511552 31.2161653 48.24257247 31.22674593 55.30005267 31.23564246 C58.62222323 31.24002412 61.94439221 31.24539277 65.26656151 31.25063133 C76.30783539 31.26764395 87.34910828 31.28213877 98.39039326 31.28938007 C101.25627455 31.29129002 104.12215584 31.29321034 106.98803711 31.29516602 C107.70035148 31.29564976 108.41266586 31.2961335 109.14656552 31.2966319 C120.68909313 31.30493461 132.23151718 31.33027539 143.77399955 31.36274669 C155.6200091 31.39580065 167.46596599 31.4138273 179.31202191 31.41702431 C185.96495773 31.41919092 192.61775972 31.42840297 199.27065468 31.45348549 C205.52755106 31.47669356 211.78417517 31.48102865 218.04110336 31.47072411 C220.34013332 31.47022689 222.63917635 31.47660179 224.93816566 31.49028015 C228.07204749 31.50788563 231.20494016 31.50094849 234.33882141 31.48774719 C235.25282961 31.49871644 236.1668378 31.50968568 237.10854322 31.52098733 C241.25503428 31.47869259 243.43113826 31.35508798 247.02057171 29.11453533 C250.18351934 25.73569885 250.99532156 23.31931881 251.01171875 18.6953125 C250.85123047 16.92800781 250.85123047 16.92800781 250.6875 15.125 C250.57921875 13.8978125 250.4709375 12.670625 250.359375 11.40625 C249.99113052 7.91593276 249.57690425 4.46142552 249 1 C253.98626685 0.8337911 258.58336251 1.00482501 263.5 1.87109375 C265.0792627 2.14518066 265.0792627 2.14518066 266.69042969 2.42480469 C268.32866699 2.70952637 268.32866699 2.70952637 270 3 C272.1508277 3.34897752 274.30187257 3.69661905 276.453125 4.04296875 C324.41007293 12.00774841 324.41007293 12.00774841 340 24 C340.61875 24.45375 341.2375 24.9075 341.875 25.375 C343.74163422 28.07124943 343.57235786 29.82023412 343 33 C328.03135759 50.10701989 293.39330918 53.03317133 272 56.5 C271.08545044 56.64963196 270.17090088 56.79926392 269.2286377 56.95343018 C248.91175143 60.2507494 228.51209102 62.36888007 208 64 C206.27813477 64.14163574 206.27813477 64.14163574 204.52148438 64.28613281 C179.20255694 66.18029867 153.79911995 66.16296924 128.42602539 66.13037109 C123.9614669 66.12467871 119.49696804 66.12807347 115.03241158 66.13379574 C86.1189516 66.16552904 57.3188012 65.77542718 28.5 63.1875 C27.49917389 63.09941071 26.49834778 63.01132141 25.4671936 62.92056274 C-79.5118577 53.64174173 -79.5118577 53.64174173 -97 33 C-97.6875 30.125 -97.6875 30.125 -97 27 C-89.05864506 16.9781623 -74.70523507 14.14366364 -63 11 C-62.25524414 10.79375 -61.51048828 10.5875 -60.74316406 10.375 C-41.31770524 5.01856155 -20.23047421 0 0 0 Z " fill="#E7A87D" transform="translate(133,110)"/>
<path d="M0 0 C1.27359375 0.3403125 2.5471875 0.680625 3.859375 1.03125 C35.12489362 9.80545846 60.59424352 30.03270647 77 58 C82 66.9953271 82 66.9953271 82 71 C9.73 71 -62.54 71 -137 71 C-133.97205333 55.86026667 -122.3128774 42.95507123 -112 32 C-111.46117187 31.39671875 -110.92234375 30.7934375 -110.3671875 30.171875 C-96.60378366 15.37102866 -76.34527041 5.14594898 -56.91113281 0.47167969 C-55.17528502 0.04326145 -53.45707674 -0.45510686 -51.7421875 -0.9609375 C-35.42566191 -5.33071954 -16.1751707 -4.57927207 0 0 Z " fill="#E9A87D" transform="translate(285,23)"/>
<path d="M0 0 C0.94189116 -0.00260775 1.88378231 -0.00521549 2.85421562 -0.00790226 C3.9011767 -0.00567154 4.94813778 -0.00344082 6.02682495 -0.0011425 C7.12953295 -0.00270249 8.23224094 -0.00426248 9.36836433 -0.00586975 C13.09421212 -0.00988495 16.82001977 -0.00668809 20.54586792 -0.00355339 C23.20445883 -0.0049072 25.8630469 -0.0066506 28.52163696 -0.00886345 C35.01162278 -0.01332185 41.50159707 -0.01234437 47.99158335 -0.00945081 C53.26376853 -0.00719705 58.53595046 -0.00688413 63.80813599 -0.00797462 C64.93152097 -0.00820447 64.93152097 -0.00820447 66.0776006 -0.00843897 C67.59878334 -0.00875868 69.11996607 -0.00908289 70.64114881 -0.00941156 C84.92222391 -0.01226656 99.2032926 -0.00897902 113.48436666 -0.00361119 C125.75161508 0.00085686 138.01885404 0.00008094 150.28610229 -0.00452995 C164.51431624 -0.00987537 178.74252456 -0.01199186 192.97073936 -0.00891769 C194.48648453 -0.00859912 196.00222969 -0.00828475 197.51797485 -0.00797462 C198.63678596 -0.00774321 198.63678596 -0.00774321 199.77819932 -0.00750712 C205.0471314 -0.00664187 210.31605992 -0.00810502 215.58499146 -0.01045418 C222.00163581 -0.01325201 228.41826793 -0.01251427 234.83491087 -0.00717343 C238.11193098 -0.00453619 241.3889263 -0.0040655 244.66594696 -0.00682259 C248.21041406 -0.00953095 251.75482258 -0.00615682 255.29928589 -0.0011425 C256.86972751 -0.00448858 256.86972751 -0.00448858 258.47189522 -0.00790226 C259.41378637 -0.00529452 260.35567753 -0.00268677 261.32611084 0 C262.55502202 0.00024353 262.55502202 0.00024353 263.80875969 0.00049198 C265.66305542 0.12584114 265.66305542 0.12584114 266.66305542 1.12584114 C266.76397017 3.7077356 266.80277041 6.26230614 266.79586792 8.84459114 C266.79730301 10.00420357 266.79730301 10.00420357 266.79876709 11.18724251 C266.79944883 12.82481658 266.79759499 14.46239333 266.79342651 16.09996223 C266.78807813 18.61516035 266.79337168 21.13017987 266.79977417 23.64537239 C266.79911339 25.23261237 266.79783222 26.81985224 266.79586792 28.40709114 C266.79789215 29.16437508 266.79991638 29.92165901 266.80200195 30.70189095 C266.77800674 36.01088982 266.77800674 36.01088982 265.66305542 37.12584114 C264.22009196 37.22338452 262.77236745 37.25139568 261.32611084 37.25168228 C260.38421968 37.25429003 259.44232853 37.25689778 258.47189522 37.25958455 C257.42493414 37.25735382 256.37797306 37.2551231 255.29928589 37.25282478 C253.64522389 37.25516477 253.64522389 37.25516477 251.95774651 37.25755203 C248.23189871 37.26156723 244.50609107 37.25837037 240.78024292 37.25523567 C238.12165201 37.25658948 235.46306394 37.25833288 232.80447388 37.26054573 C226.31448806 37.26500413 219.82451377 37.26402665 213.33452749 37.26113309 C208.06234231 37.25887933 202.79016038 37.25856641 197.51797485 37.25965691 C196.39458987 37.25988676 196.39458987 37.25988676 195.24851024 37.26012125 C193.7273275 37.26044096 192.20614477 37.26076517 190.68496203 37.26109384 C176.40388693 37.26394884 162.12281824 37.2606613 147.84174418 37.25529347 C135.57449576 37.25082542 123.3072568 37.25160134 111.04000854 37.25621223 C96.8117946 37.26155765 82.58358628 37.26367414 68.35537148 37.26059997 C66.83962631 37.2602814 65.32388115 37.25996703 63.80813599 37.25965691 C62.68932488 37.25942549 62.68932488 37.25942549 61.54791152 37.2591894 C56.27897944 37.25832415 51.01005092 37.25978731 45.74111938 37.26213646 C39.32447503 37.2649343 32.90784291 37.26419655 26.49119997 37.25885572 C23.21417986 37.25621847 19.93718454 37.25574778 16.66016388 37.25850487 C13.11569678 37.26121323 9.57128826 37.2578391 6.02682495 37.25282478 C4.97986387 37.25505551 3.93290279 37.25728623 2.85421562 37.25958455 C1.91232447 37.2569768 0.97043331 37.25436905 0 37.25168228 C-1.22891118 37.25143875 -1.22891118 37.25143875 -2.48264885 37.2511903 C-4.33694458 37.12584114 -4.33694458 37.12584114 -5.33694458 36.12584114 C-5.43785933 33.54394668 -5.47665957 30.98937614 -5.46975708 28.40709114 C-5.47071381 27.63401619 -5.47167053 26.86094124 -5.47265625 26.06443977 C-5.47333799 24.42686571 -5.47148415 22.78928895 -5.46731567 21.15172005 C-5.46196729 18.63652194 -5.46726084 16.12150241 -5.47366333 13.60630989 C-5.47300255 12.01906991 -5.47172138 10.43183004 -5.46975708 8.84459114 C-5.47178131 8.08730721 -5.47380554 7.33002327 -5.47589111 6.54979134 C-5.44629274 0.00107927 -5.44629274 0.00107927 0 0 Z " fill="#DFEAFB" transform="translate(125.33694458007813,411.87415885925293)"/>
<path d="M0 0 C74.91 0 149.82 0 227 0 C232.11833785 17.91418248 232.11833785 17.91418248 232.1875 25.8125 C232.20167969 26.56144531 232.21585938 27.31039062 232.23046875 28.08203125 C232 30 232 30 230 32 C226.9460246 32.19813377 223.98259043 32.2691226 220.92736816 32.25396729 C219.97560275 32.25708727 219.02383733 32.26020725 218.04323053 32.26342177 C214.83409705 32.27143884 211.62515072 32.26506372 208.41601562 32.25878906 C206.12342721 32.26149728 203.83083967 32.26505725 201.53825378 32.26940918 C195.29667989 32.2785556 189.05517183 32.27497966 182.81359673 32.26865101 C176.29487805 32.26360265 169.77616518 32.26827921 163.25744629 32.27142334 C151.60632132 32.27530003 139.95522652 32.26906787 128.3041063 32.25890467 C117.73250778 32.24996873 107.16095319 32.25152064 96.58935547 32.26074219 C84.32339969 32.27143665 72.05747521 32.27543382 59.79151487 32.26951766 C53.29465905 32.26639264 46.79783351 32.26600315 40.30097961 32.27259064 C34.19434394 32.27834947 28.08779156 32.2743941 21.98116493 32.26280212 C19.73409984 32.26014768 17.4870278 32.26093389 15.23996544 32.26532745 C12.18409152 32.27075353 9.12848829 32.26398469 6.07263184 32.25396729 C5.17323081 32.25842873 4.27382977 32.26289017 3.34717417 32.26748681 C-2.77170001 32.22829999 -2.77170001 32.22829999 -5 30 C-5.86320682 19.81415958 -3.1996355 9.59890651 0 0 Z " fill="#DDE9FB" transform="translate(144,102)"/>
<path d="M0 0 C63.36 0 126.72 0 192 0 C192 11.22 192 22.44 192 34 C128.64 34 65.28 34 0 34 C0 22.78 0 11.56 0 0 Z " fill="#E0EBFC" transform="translate(160,458)"/>
<path d="M0 0 C0.52319824 0.17128418 1.04639648 0.34256836 1.58544922 0.51904297 C4.01343745 1.31020921 6.44416665 2.092621 8.875 2.875 C9.69742188 3.14441406 10.51984375 3.41382813 11.3671875 3.69140625 C21.93338584 7.07589166 31.57411194 8.36430542 42.6875 8.3125 C44.54979248 8.30512817 44.54979248 8.30512817 46.44970703 8.29760742 C59.62160866 8.12931226 71.00780113 5.68514736 83.26953125 0.98828125 C86 0 86 0 88 0 C88.06058594 1.28777344 88.12117188 2.57554687 88.18359375 3.90234375 C88.26798247 5.58074159 88.3526313 7.25912636 88.4375 8.9375 C88.47681641 9.78763672 88.51613281 10.63777344 88.55664062 11.51367188 C88.59853516 12.32255859 88.64042969 13.13144531 88.68359375 13.96484375 C88.72025146 14.7137085 88.75690918 15.46257324 88.79467773 16.23413086 C88.81771063 18.02461326 88.81771063 18.02461326 90 19 C91.85174706 19.15786308 93.7090911 19.25107356 95.56640625 19.31640625 C96.57904541 19.35451416 97.59168457 19.39262207 98.63500977 19.43188477 C99.93108154 19.47498779 101.22715332 19.51809082 102.5625 19.5625 C108.7190625 19.7790625 108.7190625 19.7790625 115 20 C115 30.89 115 41.78 115 53 C68.14 53 21.28 53 -27 53 C-27 42.11 -27 31.22 -27 20 C-14.5625 19.5625 -14.5625 19.5625 -10.63500977 19.43188477 C-9.62237061 19.39377686 -8.60973145 19.35566895 -7.56640625 19.31640625 C-6.52427979 19.27974854 -5.48215332 19.24309082 -4.40844727 19.20532227 C-2.0500174 19.26484659 -2.0500174 19.26484659 -1 18 C-0.84417697 16.65984779 -0.74955858 15.31241097 -0.68359375 13.96484375 C-0.64169922 13.15595703 -0.59980469 12.34707031 -0.55664062 11.51367188 C-0.51732422 10.66353516 -0.47800781 9.81339844 -0.4375 8.9375 C-0.39431641 8.08349609 -0.35113281 7.22949219 -0.30664062 6.34960938 C-0.20023298 4.23327963 -0.09958269 2.11666187 0 0 Z " fill="#F8CECE" transform="translate(212,351)"/>
<path d="M0 0 C1.18135474 6.48349807 1.11322974 12.86214507 1.0625 19.4375 C1.05798828 20.55060547 1.05347656 21.66371094 1.04882812 22.81054688 C1.03711193 25.54042101 1.02070699 28.27018174 1 31 C-15.26511955 31.07040615 -31.53018888 31.12314171 -47.79542446 31.15543652 C-55.34942692 31.17083706 -62.90333412 31.19179441 -70.45727539 31.22631836 C-77.04928775 31.25643135 -83.64123104 31.27562435 -90.23331028 31.28226548 C-93.71652957 31.28614111 -97.19955148 31.29510274 -100.68270683 31.31719017 C-130.09484526 31.4961446 -153.89161862 28.67394192 -176.671875 8.34765625 C-178 7 -178 7 -178 6 C-177.28702759 6.00222061 -176.57405518 6.00444122 -175.83947754 6.00672913 C-133.58817513 6.13212317 -91.43639468 6.22787316 -49.25 3.5625 C-48.27634491 3.50105804 -47.30268982 3.43961609 -46.29953003 3.37631226 C-35.3729449 2.67515282 -24.47777937 1.83232316 -13.59356689 0.63172913 C-9.02910788 0.14092805 -4.59122992 -0.08823412 0 0 Z " fill="#4570C6" transform="translate(382,178)"/>
<path d="M0 0 C0.66 0 1.32 0 2 0 C3.2265625 1.72265625 3.2265625 1.72265625 4.625 4.0625 C9.64499102 11.79304308 16.08529879 17.30348707 25 20 C25.85207031 20.03996094 26.70414063 20.07992188 27.58203125 20.12109375 C30.59154922 20.26999044 32.3730264 20.48409229 35 22 C37.37683865 26.45657248 38.76929163 31.09502371 40.28027344 35.89892578 C45.13121984 50.06013498 55.28727812 61.7322461 65.91015625 71.91796875 C66.59980469 72.60503906 67.28945312 73.29210937 68 74 C68 74.33 68 74.66 68 75 C66.93523437 75.14695312 65.87046875 75.29390625 64.7734375 75.4453125 C45.55549203 78.32021025 31.42206166 85.8300017 17.99609375 100.09375 C16 102 16 102 14 102 C0.60970061 86.67956736 -4.77619173 68.67403414 -4.4375 48.6875 C-4.42631313 47.30094431 -4.41516471 45.91438832 -4.40405273 44.52783203 C-4.20727598 29.57668882 -2.58798809 14.7238934 0 0 Z " fill="#4570C6" transform="translate(118,260)"/>
<path d="M0 0 C0.99 0.66 1.98 1.32 3 2 C6.06533037 2.33633486 9.10659234 2.44154946 12.1875 2.55859375 C15 3 15 3 16.890625 4.40234375 C18 6 18 6 17.75 8.125 C17 10 17 10 16 11 C13.66702567 11.04092937 11.33294775 11.04241723 9 11 C9.02094727 11.59425781 9.04189453 12.18851563 9.06347656 12.80078125 C9.14741854 15.53367705 9.19890281 18.26630057 9.25 21 C9.30027344 22.40185547 9.30027344 22.40185547 9.3515625 23.83203125 C9.43803486 30.01480526 8.75318162 34.92900722 5 40 C1.83092589 42.78438881 -1.31127707 43.90161101 -5.5 44.5 C-9.66985137 43.90430695 -12.8861619 42.89608718 -16 40 C-20.47947283 33.96839385 -20.61267947 28.80392043 -20.5 21.4375 C-20.51546875 20.42236328 -20.5309375 19.40722656 -20.546875 18.36132812 C-20.50627182 10.59089511 -18.97917257 7.43056235 -13.9375 1.625 C-9.49685214 -0.83152861 -4.97456309 -0.66224834 0 0 Z " fill="#3963CC" transform="translate(315,226)"/>
<path d="M0 0 C4.72403852 1.9512333 7.72471109 5.44942218 10 10 C10.26834554 13.55639154 10.23163361 17.12212393 10.25 20.6875 C10.270625 21.66912109 10.29125 22.65074219 10.3125 23.66210938 C10.34415463 29.56174026 9.97398109 33.84960547 7 39 C3.65889125 42.30479235 0.04228169 43.83542921 -4.5625 44.5625 C-10.40423007 43.60658053 -13.63606036 41.82831124 -17.19140625 37.0625 C-19.8752765 32.12327659 -19.43534575 27.0408926 -19.25 21.5625 C-19.23195312 20.54478516 -19.21390625 19.52707031 -19.1953125 18.47851562 C-19.14847997 15.98468345 -19.08291427 13.49284953 -19 11 C-20.670625 11.061875 -20.670625 11.061875 -22.375 11.125 C-26 11 -26 11 -28 9 C-27.75 6.4375 -27.75 6.4375 -27 4 C-23.56441285 2.28220642 -19.64100107 2.59553712 -15.84765625 2.37890625 C-9.90582602 1.58829235 -6.52240188 -0.6689643 0 0 Z " fill="#3963CC" transform="translate(207,226)"/>
<path d="M0 0 C0 10.23 0 20.46 0 31 C-11.88 31 -23.76 31 -36 31 C-31.19224424 16.57673272 -21.1985615 7.83083446 -8 1 C-5 0 -5 0 0 0 Z " fill="#F5CDCE" transform="translate(171,373)"/>
<path d="M0 0 C16.42742174 4.92822652 26.32914111 12.61165509 34.75 27.4609375 C36 30 36 30 36 32 C24.12 32 12.24 32 0 32 C0 21.44 0 10.88 0 0 Z " fill="#F6CDCE" transform="translate(341,372)"/>
<path d="M0 0 C6.93 0 13.86 0 21 0 C21 11.55 21 23.1 21 35 C14.07 35 7.14 35 0 35 C0 23.45 0 11.9 0 0 Z " fill="#F0CACE" transform="translate(360,457)"/>
<path d="M0 0 C6.93 0 13.86 0 21 0 C21 11.55 21 23.1 21 35 C14.07 35 7.14 35 0 35 C0 23.45 0 11.9 0 0 Z " fill="#F0CACE" transform="translate(131,457)"/>
<path d="M0 0 C3.5 0.5625 3.5 0.5625 5.9375 1.9375 C7.5 4.5625 7.5 4.5625 7.5 14.5625 C15.75 14.5625 24 14.5625 32.5 14.5625 C32.5 14.8925 32.5 15.2225 32.5 15.5625 C24.25 15.5625 16 15.5625 7.5 15.5625 C7.5 26.4525 7.5 37.3425 7.5 48.5625 C2.88 48.5625 -1.74 48.5625 -6.5 48.5625 C-6.5 38.3325 -6.5 28.1025 -6.5 17.5625 C-7.16 17.2325 -7.82 16.9025 -8.5 16.5625 C-7.84 16.5625 -7.18 16.5625 -6.5 16.5625 C-6.61859375 15.82644531 -6.7371875 15.09039062 -6.859375 14.33203125 C-7.90433213 6.42170578 -7.90433213 6.42170578 -6 2.375 C-3.5 0.5625 -3.5 0.5625 0 0 Z " fill="#4871C6" transform="translate(177.5,355.4375)"/>
<path d="M0 0 C5.51466332 0.06266663 5.51466332 0.06266663 8 1.5859375 C10.85069376 6.44888568 10.11421182 12.20906615 9.94140625 17.63671875 C9.90598976 18.95786934 9.90598976 18.95786934 9.86985779 20.30570984 C9.79353294 23.10762919 9.70937514 25.90925016 9.625 28.7109375 C9.57174807 30.61521997 9.5190079 32.51951683 9.46679688 34.42382812 C9.33796017 39.08221875 9.20209995 43.7403575 9.0625 48.3984375 C4.4425 48.3984375 -0.1775 48.3984375 -4.9375 48.3984375 C-4.9375 37.5084375 -4.9375 26.6184375 -4.9375 15.3984375 C-13.1875 15.3984375 -21.4375 15.3984375 -29.9375 15.3984375 C-29.9375 15.0684375 -29.9375 14.7384375 -29.9375 14.3984375 C-21.6875 14.3984375 -13.4375 14.3984375 -4.9375 14.3984375 C-4.9375 10.7684375 -4.9375 7.1384375 -4.9375 3.3984375 C-1.9375 0.3984375 -1.9375 0.3984375 0 0 Z " fill="#4771C6" transform="translate(331.9375,355.6015625)"/>
<path d="M0 0 C5.94 0.66 11.88 1.32 18 2 C17.690625 3.959375 17.38125 5.91875 17.0625 7.9375 C15.85994552 16.27009383 15.3866539 24.59536523 15 33 C14.443125 33.17015625 13.88625 33.3403125 13.3125 33.515625 C5.49674723 35.9976546 -1.28698798 39.30089159 -8 44 C-6.58075143 34.16572841 -4.7924399 24.43315621 -2.875 14.6875 C-2.59481586 13.25330134 -2.31486668 11.81905675 -2.03515625 10.38476562 C-1.35989472 6.92255191 -0.67986497 3.46132514 0 0 Z " fill="#4570C6" transform="translate(134,178)"/>
<path d="M0 0 C2.5078125 0.07421875 2.5078125 0.07421875 5 1 C6.1171875 3.14453125 6.1171875 3.14453125 6.875 5.8125 C8.24676599 9.58755681 8.87790819 10.89316967 12 13.625 C17.6234946 16.17011609 24.29878757 15.93852172 30.1875 14.4453125 C33.16290061 13.09868722 34.77888862 11.47958295 36.1328125 8.54296875 C37.1505743 5.8438104 37.1505743 5.8438104 37.8828125 3.14453125 C39 1 39 1 41.4921875 0.07421875 C42.31976563 0.04972656 43.14734375 0.02523438 44 0 C46 2 46 2 46.1171875 3.953125 C45.47681999 10.02628788 44.17242712 14.22797631 39.390625 18.40625 C31.94770066 24.07077649 24.17697128 25.04479603 15 24 C7.32918432 21.58472966 2.41968253 17.6089191 -1.3125 10.5 C-2.12965036 7.52854415 -2.27267147 5.06755403 -2 2 C-1.34 1.34 -0.68 0.68 0 0 Z " fill="#3D65CC" transform="translate(234,287)"/>
</svg>
